<?xml version="1.0" encoding="UTF-8" standalone="no"?><!DOCTYPE svg PUBLIC "-//W3C//DTD SVG 1.1//EN" "http://www.w3.org/Graphics/SVG/1.1/DTD/svg11.dtd"><svg width="100%" height="100%" viewBox="0 0 4584 750" version="1.1" xmlns="http://www.w3.org/2000/svg" xmlns:xlink="http://www.w3.org/1999/xlink" xml:space="preserve" xmlns:serif="http://www.serif.com/" style="fill-rule:evenodd;clip-rule:evenodd;stroke-linejoin:round;stroke-miterlimit:2;"><rect x="0" y="0" width="4583.33" height="750"/><g><path d="M3781.25,58.899c-13.333,7.5 -37.917,32.917 -79.167,82.917c-43.75,52.083 -125.416,175 -136.666,204.583c-4.584,12.084 -12.5,8.75 -10,-4.166c2.5,-11.667 24.166,-74.584 31.25,-90c2.083,-4.584 10.416,-23.75 17.916,-42.084c7.5,-18.333 22.084,-49.166 31.667,-68.333c20,-39.583 21.667,-50.833 9.583,-62.917c-24.166,-24.166 -48.333,0.417 -86.25,87.5c-3.333,7.917 -8.75,20 -12.083,26.25c-3.333,6.667 -5.833,14.167 -5.833,17.084c0,2.916 -5.417,16.25 -12.084,30c-6.666,13.333 -12.916,29.166 -14.166,35c-1.25,5.833 -4.167,16.666 -6.667,23.75c-2.5,7.5 -6.667,20 -9.167,27.083c-2.5,7.5 -5.833,21.25 -7.916,30.417c-1.667,9.166 -7.084,28.75 -12.084,43.75c-5,15 -10.833,40.416 -13.333,56.666c-2.083,16.667 -5.833,36.25 -7.917,43.75c-2.5,7.917 -4.166,23.75 -4.166,35.417c0,26.667 12.083,40.417 33.75,38.333c14.166,-1.25 14.166,-1.666 22.083,-34.583c10.833,-46.667 14.583,-55.833 47.917,-127.083c17.083,-36.25 29.583,-58.75 60,-110.417c19.166,-32.5 53.333,-86.25 57.083,-89.583c1.25,-1.25 12.917,-16.25 25.833,-33.334c42.084,-55 67.5,-80.833 75.834,-77.916c13.333,5 5,53.333 -21.25,130c-5.834,15.833 -11.667,34.583 -13.75,41.666c-7.084,26.25 -33.334,90 -52.084,127.084c-27.5,55.416 -37.916,72.5 -55.416,92.083c-23.75,26.667 -37.084,27.5 -59.584,3.75c-8.75,-9.167 -17.083,-16.667 -18.333,-16.667c-1.25,0 -2.083,4.584 -2.083,10c0,6.25 7.083,17.084 18.333,28.75c19.583,20.417 39.167,26.667 66.667,21.25c19.166,-3.333 53.333,-33.75 78.75,-69.583c20,-28.333 48.75,-80.417 48.75,-89.167c0,-3.333 5.416,-17.083 12.083,-31.666c11.25,-24.167 14.583,-32.917 30.833,-75.834c13.75,-37.083 16.667,-56.666 18.334,-117.5c1.666,-57.083 0.833,-64.583 -6.667,-79.583c-10.833,-21.667 -22.917,-26.667 -40,-16.667Z" style="fill:#fff;fill-rule:nonzero;"/><path d="M2388.33,67.233c-15.833,19.583 -109.166,293.333 -109.166,320.416c0,5.834 -1.667,12.084 -3.75,14.167c-7.5,7.917 -25,80 -25.417,103.75c0,22.5 15,45 29.167,43.333c8.75,-1.25 10.833,-4.166 12.916,-17.916c3.334,-20.834 11.25,-52.917 18.75,-75c3.334,-9.584 5.834,-20.834 5.834,-25c0,-11.25 10,-38.75 15.833,-44.584c3.333,-3.333 5.417,-2.5 7.083,3.334c5.834,17.5 20,42.5 39.584,70.416c11.25,15.834 23.333,35 26.666,42.084c7.084,16.25 63.334,72.916 85.834,87.083c30.416,19.167 57.5,11.667 93.333,-26.25c13.333,-14.167 32.083,-21.25 85.833,-32.083c19.584,-3.75 45.834,-9.584 58.334,-12.5c12.5,-3.334 27.916,-7.084 34.583,-8.334c6.25,-1.25 11.25,-5 11.25,-8.75c0,-5.416 -6.25,-6.25 -40.417,-5.416l-40.833,1.25l-1.25,-12.084c-0.833,-6.25 4.583,-27.916 11.667,-47.5c7.5,-19.583 15.833,-42.5 18.75,-50.416c20,-53.334 72.916,-174.167 85.833,-195.834c2.083,-3.333 5.833,-11.25 8.333,-17.916c2.5,-6.25 6.25,-11.25 7.917,-11.25c2.083,0 4.167,-5 5,-11.25c0.833,-5.834 3.75,-11.667 6.667,-12.917c7.083,-2.083 6.666,18.75 -0.417,22.917c-8.333,5 -15.417,45.416 -10.417,62.5c2.917,11.25 5.834,14.166 12.917,12.916c6.25,-0.833 10,-5.833 13.75,-18.333c12.5,-42.917 50,-96.667 73.75,-105.417c15.417,-5.833 24.583,2.084 21.667,17.5c-5.417,25.417 -22.084,72.084 -43.75,121.667c-11.667,27.5 -24.584,58.333 -27.917,68.75c-7.5,22.5 -41.25,109.167 -49.583,127.083c-8.75,19.584 -14.584,52.5 -12.084,65.417c1.667,6.667 7.084,15 12.5,18.333c13.334,8.75 23.75,2.5 32.917,-20c12.917,-30.416 20.833,-46.25 31.667,-63.75c5.416,-9.166 12.083,-20 14.583,-23.75c22.917,-38.75 53.75,-87.083 57.083,-89.166c2.084,-1.25 23.334,-28.334 47.5,-60.417c49.584,-65.833 102.084,-122.5 110.417,-119.583c10,3.333 8.75,14.583 -4.167,35.833c-7.083,11.25 -12.916,23.333 -12.916,26.667c0,3.75 -2.917,8.75 -6.25,11.666c-3.334,2.917 -6.25,7.084 -6.25,9.584c0,3.75 -15.834,37.5 -60.834,129.583c-7.916,15.417 -14.166,30.833 -14.166,33.75c0,2.917 -3.334,11.667 -7.084,19.583c-11.666,23.334 -13.333,27.084 -22.083,52.084c-10.833,30.416 -11.25,77.5 -0.833,106.25c3.75,11.666 14.166,29.166 22.916,39.166c15.417,17.5 17.084,18.334 38.75,18.334c25.834,0 50,-12.5 59.584,-30.834c7.5,-13.75 3.75,-17.5 -11.667,-10.833c-7.083,2.5 -24.167,5 -38.333,5c-43.334,0 -47.5,-16.25 -21.667,-86.25c3.333,-9.167 7.917,-19.583 9.583,-23.333c2.084,-3.75 11.25,-25.417 20.834,-47.917c9.583,-22.5 21.666,-50.833 27.083,-62.083c5,-11.667 12.917,-29.167 17.083,-39.167c4.584,-10.417 17.917,-38.333 30,-62.5c12.084,-24.167 25,-52.5 28.334,-62.917c16.666,-52.916 -4.584,-101.666 -40.834,-93.75c-17.083,4.167 -54.166,32.084 -76.666,58.75c-9.584,11.25 -26.25,30.417 -36.667,42.917c-21.25,25 -60.833,82.5 -60.833,87.917c0,2.083 -2.5,5.416 -5.417,7.083c-3.333,1.667 -7.917,7.083 -10.417,11.667c-10.416,18.75 -4.166,-7.5 17.5,-73.75c30,-90.834 33.334,-107.5 25.417,-136.667c-11.667,-44.167 -44.167,-52.5 -92.083,-24.167c-17.084,10 -42.5,9.584 -55.834,-0.833c-14.583,-11.25 -22.916,-10.417 -34.166,3.75c-8.334,10.833 -14.584,13.333 -47.084,19.583c-44.166,7.917 -49.583,10.417 -51.25,21.25c-2.083,12.917 15.417,19.584 42.917,16.25c26.25,-2.916 27.917,-0.416 15,25.417c-4.583,8.75 -12.917,27.083 -19.167,40.833c-6.25,13.75 -15.416,34.167 -20.833,45.834c-9.583,21.25 -23.333,54.166 -33.75,82.083c-15.833,42.083 -19.583,51.667 -22.917,58.333c-9.166,17.917 -20.416,58.75 -20.416,74.167c0,15.417 -1.25,17.5 -14.584,23.333c-7.916,2.917 -21.666,5.834 -30.416,5.834c-18.75,0 -38.334,12.916 -38.334,25.416c0,10 -10.416,10.417 -34.166,0c-33.75,-14.583 -161.667,-152.083 -161.667,-173.75c0,-7.083 5.833,-12.916 22.083,-22.083c27.5,-15.833 125,-105 154.167,-141.25c48.333,-60 52.917,-67.5 52.917,-87.5c0,-11.667 -3.334,-23.75 -8.75,-32.5c-7.084,-11.667 -10,-13.333 -16.667,-10c-4.167,2.5 -9.167,9.583 -10.417,15.833c-3.75,13.75 -10.416,25 -34.583,56.667c-23.333,30.417 -126.25,136.25 -146.25,150.417c-16.25,11.666 -24.583,8.333 -16.25,-6.667c2.917,-5.417 6.667,-16.667 8.333,-24.583c1.667,-7.917 7.084,-25 12.084,-37.5c5,-12.5 10.416,-27.5 12.5,-33.334c2.083,-5.833 7.5,-20.833 12.5,-33.333c5,-12.5 10.416,-28.75 12.083,-35.417c1.667,-7.083 5.417,-16.666 7.917,-21.666c2.916,-5 5,-12.917 5,-17.5c0,-15.834 -30.834,-28.334 -40.834,-16.25Z" style="fill:#fff;fill-rule:nonzero;"/><path d="M3341.67,83.483c-16.667,10.416 -63.334,57.083 -77.917,78.75c-5.417,7.916 -16.667,23.333 -25.417,34.166c-14.166,18.334 -27.916,42.5 -40.416,72.084c-2.917,6.666 -7.5,17.083 -9.584,22.916c-2.5,5.834 -8.333,19.584 -13.333,31.25c-12.917,30.834 -12.917,85.834 0.417,108.334c5.416,9.166 12.5,19.583 16.25,23.333c9.583,10.417 31.666,20.417 45,20.417c21.666,0 59.583,-33.334 97.083,-85c13.333,-18.75 20.417,-23.75 20.417,-14.167c0,4.583 -17.084,54.167 -31.667,91.667c-3.333,8.75 -8.75,23.75 -12.5,33.333c-3.75,10 -9.167,22.917 -12.5,29.167c-3.333,5.833 -5.833,12.916 -5.833,15.833c0,2.5 -8.75,22.917 -19.167,45c-32.917,68.75 -60.417,105 -78.75,105c-20,0 -20,-35.417 -0.417,-74.583c19.584,-39.167 22.917,-44.584 45.417,-75c13.333,-18.334 18.333,-28.334 15.417,-31.25c-4.584,-4.584 -12.917,2.5 -64.584,53.75c-41.666,41.25 -50.416,61.25 -48.333,109.166c1.25,36.25 61.25,67.084 95.417,49.584c14.583,-7.5 45.416,-49.584 67.916,-92.084c9.167,-18.333 18.334,-35.416 20,-37.5c2.917,-4.166 24.584,-55.833 36.667,-87.5c7.083,-18.333 13.75,-34.166 22.917,-56.25c6.25,-14.583 15,-36.25 27.083,-68.75c3.75,-9.166 7.917,-20.416 10,-25c2.083,-4.583 7.5,-19.166 12.083,-32.083c5,-13.333 14.584,-34.167 21.25,-47.083c11.667,-22.084 12.084,-23.75 5.834,-35.834c-3.75,-6.666 -12.917,-15.416 -20.834,-19.166c-12.916,-6.25 -15,-6.25 -24.583,0.416c-5.833,3.75 -10.833,8.75 -10.833,11.25c0,12.917 -126.667,160.417 -154.167,179.584c-12.083,8.75 -29.583,9.583 -36.667,2.5c-6.666,-6.667 -6.25,-18.334 1.667,-40.834c8.75,-25.833 52.917,-115.416 65.833,-134.583c5.834,-8.75 10.834,-16.667 10.834,-17.917c0,-3.333 47.916,-64.583 65.416,-83.333c16.667,-18.333 29.584,-26.667 40.417,-26.667c14.583,0 2.083,57.084 -18.75,84.584c-17.5,23.333 -20.833,32.083 -14.167,34.583c15.417,6.25 73.334,-45.417 81.667,-72.5c3.75,-12.5 3.333,-20 -2.083,-37.5c-6.667,-22.5 -12.5,-30.833 -31.25,-43.333c-15.834,-10.834 -52.5,-10 -71.25,1.25Z" style="fill:#fff;fill-rule:nonzero;"/><path d="M4012.5,86.399c-12.5,5.834 -35.417,23.334 -50.833,38.334c-25,24.583 -62.5,74.166 -69.167,91.25c-1.25,3.75 -4.167,8.333 -5.833,10.833c-2.084,2.083 -7.084,8.75 -11.667,14.167c-4.583,5.416 -8.333,12.5 -8.333,15.833c0,2.917 -1.667,5.417 -4.167,5.417c-2.083,0 -5.417,5 -6.667,11.25c-1.666,6.25 -5.416,14.166 -8.75,17.083c-2.916,2.917 -5.416,9.167 -5.416,13.75c0,4.167 -1.667,7.917 -3.75,7.917c-2.084,0 -5.417,6.25 -6.667,13.333c-1.667,7.5 -4.583,15.417 -6.25,17.917c-1.667,2.083 -5.417,13.333 -7.917,25c-2.916,11.25 -7.916,32.916 -11.25,47.916c-9.583,40.834 -5.833,72.917 12.084,105c32.916,57.917 77.083,73.334 131.666,45c24.167,-12.5 67.917,-61.666 88.334,-99.166c41.25,-75.417 45.416,-85.417 56.25,-130c11.666,-47.5 3.75,-81.25 -21.667,-92.5c-13.75,-6.25 -18.333,0 -18.333,27.5c0,44.166 -38.334,144.583 -74.167,193.333c-35.833,50 -64.583,71.667 -92.917,71.667c-22.916,0 -27.916,-3.334 -32.916,-21.25c-10,-33.334 2.916,-91.667 39.166,-179.167c42.084,-101.667 106.25,-198.75 144.584,-218.333c15,-7.917 15,-7.917 22.5,3.75c5.833,9.166 5.833,11.666 -0.417,27.916c-12.5,31.667 -35,61.667 -61.667,81.667c-13.75,10.833 -26.25,20 -27.5,21.25c-5.833,4.583 15.834,13.75 28.334,11.667c28.75,-4.584 99.166,-75 107.083,-107.917c6.667,-26.25 -12.083,-59.583 -42.917,-75.417c-17.083,-8.75 -23.75,-8.333 -50.833,5Z" style="fill:#fff;fill-rule:nonzero;"/><path d="M4212.5,81.816c-26.25,9.167 -70.833,41.667 -70.833,52.083c0,1.667 -5.417,12.5 -12.5,24.167c-10,17.083 -12.5,25.833 -12.5,45c0,12.917 1.666,26.25 3.75,29.167c7.083,11.666 17.5,2.916 25.833,-20.834c10,-30 21.667,-49.583 44.583,-77.5c15.834,-18.333 20.834,-21.666 32.917,-21.666c22.5,0 22.5,2.916 -2.083,81.25c-3.334,11.25 -13.334,35.833 -21.667,54.166c-8.75,18.334 -22.917,50 -31.25,70.834c-8.75,20.416 -19.167,45.833 -23.75,56.25c-4.583,10.416 -9.583,22.5 -11.667,27.083c-1.666,4.583 -5.416,13.75 -8.333,20.833c-11.667,28.334 -20.833,63.75 -20.833,79.584c0,12.916 2.5,19.166 10.833,27.083c9.583,9.167 11.25,9.583 21.667,3.333c6.25,-3.333 12.916,-11.666 14.583,-18.333c2.083,-7.083 6.25,-18.333 9.167,-25c2.916,-7.083 8.75,-20.833 12.916,-31.25c4.167,-10.417 12.5,-26.25 17.917,-35.417c5.833,-9.166 12.5,-20 15,-23.75c2.083,-3.75 9.583,-15.833 16.25,-27.083c71.667,-118.75 151.667,-215.417 171.25,-207.917c5,1.667 3.75,7.5 -6.25,31.25c-7.083,16.25 -18.333,39.167 -25,51.25c-17.917,31.667 -56.667,110.834 -63.75,130.417c-21.667,59.583 -24.167,80.833 -13.333,102.083c3.333,6.667 10.416,14.584 15.416,17.084c10.417,5.416 14.167,1.666 30,-29.584c5.417,-10.416 15,-27.5 21.667,-37.5c6.25,-10.416 15.417,-25 19.583,-32.916c15,-27.5 93.75,-127.917 115.417,-147.5c17.5,-15.834 22.917,-18.75 27.917,-15c8.333,7.083 4.166,21.25 -21.667,72.5c-12.083,24.166 -25,53.75 -29.167,65.833c-6.25,18.75 -12.083,34.167 -27.083,67.5c-8.333,18.75 -20.833,80.417 -20.833,102.5c0,29.583 11.666,58.75 32.5,79.583c13.75,14.584 17.083,15.834 37.5,15.834c17.916,0 25.833,-2.5 40,-12.5c16.666,-11.25 23.333,-19.584 23.333,-29.584c0,-5 -14.167,-4.583 -19.583,0.834c-2.5,2.5 -17.084,4.583 -32.917,4.583c-24.167,0 -29.167,-1.25 -35.833,-9.167c-4.167,-5 -7.5,-12.083 -7.5,-15.833c0,-22.917 55,-169.583 92.916,-246.667c14.584,-30 17.5,-40.416 18.75,-67.083c1.667,-30.833 1.25,-32.083 -11.666,-47.083c-11.25,-12.5 -15.834,-15 -30.417,-15c-27.083,0 -66.25,33.333 -110.417,94.166c-12.083,16.667 -21.666,31.25 -21.666,32.5c0,4.584 -30.834,44.167 -34.167,44.167c-5.417,0 -6.667,3.333 19.583,-56.25c19.167,-42.917 28.334,-61.667 39.584,-81.667c24.166,-40.416 24.583,-71.25 2.083,-93.75c-14.167,-14.166 -27.083,-12.5 -49.583,5.417c-23.75,19.583 -80.834,86.25 -103.334,120.833c-9.583,14.584 -18.75,26.25 -20.833,26.25c-5.833,0 -1.667,-22.5 10.417,-56.25c26.666,-74.583 29.166,-95 15.416,-125c-11.666,-25.416 -35,-36.666 -58.333,-28.333Z" style="fill:#fff;fill-rule:nonzero;"/></g><g><path d="M2059.66,83.788c-11.666,3.75 -29.583,12.083 -39.583,18.333c-23.333,13.334 -62.5,54.167 -62.5,64.584c0,4.166 -2.917,12.083 -6.667,17.5c-5,6.666 -6.666,18.333 -6.25,41.25c0.417,32.083 6.25,55.416 23.75,94.583c5,11.25 13.334,31.25 18.334,43.75c5,12.5 13.75,33.75 18.75,46.667c14.583,35.416 16.25,48.75 7.916,70c-16.25,40.833 -49.166,69.166 -86.25,73.333c-18.333,2.083 -23.333,1.25 -33.333,-6.667c-11.667,-9.166 -12.083,-10.416 -10.417,-43.333c1.25,-26.667 3.75,-38.333 12.917,-55.833c23.333,-45.834 9.167,-56.667 -25.833,-20c-24.167,25.833 -28.75,35.833 -34.167,71.25c-6.25,44.583 5.417,68.75 40.417,81.666c52.083,20 130.416,-2.916 163.333,-47.5c26.667,-35.833 30.833,-47.083 31.25,-80.416c0,-32.084 -5.417,-50 -25.833,-82.917c-9.167,-15.417 -29.167,-68.75 -37.917,-102.083c-6.25,-23.75 -4.583,-58.75 3.75,-77.084c10.417,-22.916 42.5,-53.333 69.583,-66.25c24.167,-11.666 50.834,-14.166 59.167,-5.833c12.917,12.917 0.417,57.083 -22.083,78.333c-5.834,5.417 -10.417,12.084 -10.417,15c0,2.5 -2.917,7.084 -6.25,10c-8.75,7.084 -8.333,25 0.417,25c9.583,0 64.583,-57.916 76.666,-80c19.584,-37.083 -2.083,-69.166 -55.416,-83.75c-32.5,-8.333 -36.667,-8.333 -63.334,0.417Z" style="fill:#fff;fill-rule:nonzero;"/><path d="M1439.66,104.205c-1.666,1.666 -7.5,12.083 -12.916,23.75c-34.584,73.75 -44.167,95 -44.167,98.75c0,2.5 -2.5,9.583 -5.833,15.416c-3.334,6.25 -8.75,18.75 -12.084,27.917c-24.166,62.917 -25.416,65.833 -39.583,71.667c-16.25,6.666 -21.667,17.083 -12.083,24.166c10.416,7.5 9.166,16.25 -12.084,80c-21.666,65.417 -25,95.417 -12.5,109.167c4.584,5 12.917,8.75 19.167,8.75c9.167,0 12.083,-2.917 17.917,-20c3.75,-10.833 7.083,-22.917 7.083,-26.667c0,-4.166 2.5,-13.333 5.833,-20.833c3.334,-7.5 8.75,-24.167 12.5,-36.667c3.75,-12.5 10.417,-35.833 15,-51.666c9.584,-32.917 20,-44.167 40.834,-44.167c8.333,0 26.666,-2.083 41.25,-4.583c14.583,-2.5 27.5,-3.75 28.75,-2.5c2.083,2.083 -2.917,18.75 -19.167,61.25c-14.583,37.916 -21.25,55.833 -25,66.666c-2.083,5.834 -7.5,20.834 -12.5,33.334c-13.333,33.75 -20,64.166 -16.25,74.166c1.667,4.584 7.917,11.667 14.167,15.834c8.75,5.833 11.666,5.833 17.5,1.25c7.083,-5.834 34.583,-62.917 34.583,-71.25c0,-2.917 5.833,-20 12.917,-38.334c7.5,-18.75 15.833,-40.833 18.75,-49.583c13.333,-35.417 19.583,-51.25 25,-62.083c3.333,-5.834 5.833,-13.334 5.833,-16.25c0,-2.5 4.583,-11.25 10.833,-19.167c7.084,-9.583 13.75,-13.75 21.667,-13.75c17.5,0 30,-4.583 30,-10.833c0,-3.75 -5,-5.834 -14.583,-5.834c-9.584,0 -15.834,-2.5 -17.5,-6.666c-1.25,-3.75 9.583,-31.25 26.666,-65.417c39.167,-79.583 42.917,-88.75 42.917,-101.667c0,-15 -19.167,-34.583 -33.75,-34.583c-11.667,0 -11.25,-1.25 -36.667,55c-21.666,47.5 -54.583,126.25 -54.583,130.833c0,2.917 -4.583,10.417 -10.417,16.25c-9.583,9.167 -14.583,10.417 -38.75,10.417c-15.416,0 -35,1.25 -43.333,2.5c-14.167,2.5 -15.833,1.667 -15.833,-5.833c0,-4.584 2.083,-10 4.166,-11.25c2.5,-1.25 4.167,-7.917 4.167,-14.584c0,-6.666 2.917,-17.083 6.25,-23.75c9.583,-18.75 37.917,-80.416 48.333,-105.416c5,-12.5 12.084,-26.667 15,-31.25c7.5,-10.834 7.084,-12.5 -5,-25c-10.416,-10 -26.666,-13.75 -32.5,-7.5Z" style="fill:#fff;fill-rule:nonzero;"/><path d="M1814.66,124.205c-10.416,10.416 -18.75,14.583 -27.916,14.583c-7.084,0 -25,2.917 -39.584,6.667c-23.75,6.25 -27.083,7.916 -27.083,16.666c0,13.334 15.833,19.167 42.083,15.834c18.75,-2.5 20.417,-2.084 20.417,5.833c0,4.583 -2.5,13.75 -5.833,20.417c-3.334,6.25 -9.584,20 -14.167,30.416c-4.583,10.417 -12.917,29.167 -18.75,41.667c-30.833,67.5 -42.083,93.75 -47.083,114.583c-2.084,7.917 -21.25,56.25 -33.334,84.584c-3.333,7.5 -5.833,21.666 -5.833,32.083l0,17.917l-20.833,4.583c-11.25,2.5 -27.917,5.833 -37.084,7.083c-17.916,2.917 -23.75,10.417 -17.083,22.917c7.5,13.75 13.75,12.917 143.75,-15.833c79.583,-17.5 89.167,-28.334 24.583,-28.334c-48.75,0 -48.333,0.417 -32.5,-41.666c5.834,-16.25 12.5,-35 14.167,-41.667c5.417,-18.75 15.833,-47.083 26.667,-70.417c5.416,-11.666 13.75,-31.666 19.166,-44.166c11.667,-29.167 28.75,-67.084 33.334,-75c8.75,-15.834 32.5,-65.417 35.416,-73.75c1.667,-6.25 7.5,-10.834 17.917,-13.334c50.833,-13.333 72.083,-20 72.083,-23.75c-0.416,-2.083 -16.666,-4.166 -36.25,-5c-20.833,-0.833 -39.583,-3.333 -44.583,-6.666c-19.167,-12.084 -25.833,-11.667 -41.667,3.75Z" style="fill:#fff;fill-rule:nonzero;"/></g><g><path d="M219.375,84.499c-45.833,15.834 -84.583,52.5 -102.5,96.25c-11.25,28.75 -11.25,28.75 -5.417,63.334c5.834,34.166 14.167,59.583 30.834,95.416c15.416,33.334 33.75,80.417 38.333,98.334c11.667,45.416 -27.083,100 -80.833,114.583c-26.667,7.083 -46.25,-2.083 -50,-23.75c-4.584,-23.75 1.666,-60.417 14.583,-87.083c12.917,-25.834 14.583,-33.75 7.917,-37.917c-12.084,-7.5 -50.834,31.25 -64.167,64.583c-10.833,27.5 -10.833,71.667 0,86.25c16.25,22.084 37.5,30.417 77.083,30.417c31.667,0 39.584,-1.667 67.917,-14.167c34.583,-15 37.917,-17.5 54.167,-40c39.166,-53.75 41.666,-93.333 10.416,-150c-13.75,-24.583 -25.416,-51.25 -29.166,-66.666c-1.667,-7.917 -7.084,-25.834 -12.084,-39.584c-5,-13.75 -9.166,-33.75 -9.166,-44.166c0,-27.084 17.5,-62.084 41.666,-82.5c21.667,-17.917 62.917,-37.917 78.334,-37.917c10.833,0 26.666,14.583 26.666,25.417c0,11.25 -17.083,46.666 -29.583,61.25c-6.667,7.5 -15.833,20.833 -20.417,29.583c-7.083,14.583 -7.5,16.667 -1.25,18.75c3.75,1.667 10.417,-0.417 15.417,-4.583c17.917,-15 60.833,-61.667 60.833,-66.25c0,-2.5 2.917,-7.084 6.25,-10c3.75,-2.917 6.25,-12.084 6.25,-22.917c0,-28.75 -17.5,-45 -62.083,-58.75c-25,-7.5 -43.333,-7.083 -70,2.083Z" style="fill:#fff;fill-rule:nonzero;"/><path d="M965.208,84.083c-4.583,2.916 -19.166,33.333 -26.25,55c-2.083,5.833 -7.5,20.833 -12.5,33.333c-4.583,12.5 -12.5,35 -17.083,50c-5,15 -11.25,33.75 -14.167,41.667c-11.25,31.25 -15.416,44.166 -18.75,56.25c-2.083,6.666 -5.416,17.916 -7.916,25c-2.084,6.666 -7.084,24.583 -10.834,39.583c-3.75,15 -8.75,32.5 -10.833,39.583c-17.917,53.334 -26.25,94.584 -22.5,113.334c4.167,22.5 32.5,45 37.083,29.166c0.834,-2.5 5.417,-22.083 10.417,-42.5c15.417,-64.583 29.583,-116.25 33.333,-120c1.667,-1.666 10.417,11.25 19.584,29.167c8.75,17.917 24.166,42.917 33.333,55.833c9.583,12.917 18.75,27.917 20.417,33.334c5,15 72.5,79.166 95.416,90.416c13.334,7.084 22.917,9.167 30.834,7.084c16.666,-4.167 50.416,-30.417 61.666,-48.334c17.084,-27.083 11.25,-44.166 -7.916,-22.5c-11.25,12.917 -32.5,17.084 -55,10.834c-12.5,-3.334 -27.917,-15 -60.417,-47.084c-46.667,-45.416 -96.667,-103.75 -105,-122.083c-4.583,-10 -3.75,-11.667 7.5,-20.833c6.667,-5.417 13.75,-10 15.417,-10.417c11.25,-0.417 118.333,-99.583 148.75,-137.5c7.916,-10 20.416,-25 27.5,-33.333c23.333,-27.084 26.666,-34.167 26.666,-58.334c-0.416,-40 -24.166,-55.416 -35.416,-22.5c-8.75,26.667 -42.084,69.167 -103.334,132.917c-48.75,50.417 -88.333,84.583 -93.333,79.583c-4.167,-3.75 14.583,-62.5 44.583,-140c5,-12.5 10.417,-28.75 12.5,-35.416c1.667,-7.084 6.25,-19.167 10,-27.917c5.834,-14.167 5.834,-15.833 -0.833,-23.333c-7.917,-9.167 -25.417,-14.584 -32.917,-10Z" style="fill:#fff;fill-rule:nonzero;"/><path d="M443.958,102.416c-2.916,2.917 -5,7.083 -5,9.583c0,11.25 -19.166,22.917 -37.916,22.917c-19.584,0 -37.084,8.75 -37.084,18.75c0,8.75 20.834,22.917 33.75,22.917c8.334,0 12.084,2.083 12.084,6.666c0,6.25 -17.084,62.917 -25,82.917c-6.667,15.833 -16.667,51.667 -16.667,57.917c0,10 -20.833,23.333 -35.833,23.333c-12.5,0 -14.167,1.25 -14.167,10.417c0,7.5 2.917,11.666 10.833,14.583c12.084,4.583 12.084,12.5 0,43.75c-3.333,9.167 -10.416,27.083 -15,39.583c-5,12.5 -10,26.667 -11.25,31.25c-0.833,4.584 -7.5,21.667 -14.583,37.917c-11.667,28.333 -12.083,30.417 -5.833,41.667c10.416,18.75 20,28.333 37.5,36.666c22.083,10.417 39.166,7.084 82.083,-16.25c17.5,-10 82.917,-74.583 82.917,-82.5c0,-10 -10,-8.75 -29.584,3.334c-9.166,5.833 -20.833,12.5 -25.833,14.583c-5,2.5 -12.083,5.833 -15.417,8.333c-22.916,15 -51.666,29.167 -61.25,30c-10.833,1.25 -11.666,0.417 -11.25,-13.333c0.417,-7.917 4.584,-25 9.584,-37.5c5,-12.5 12.916,-35 17.5,-50c5,-15 11.25,-33.75 14.166,-41.667c3.334,-7.916 7.917,-21.666 10.417,-30c5.833,-19.166 12.5,-24.583 34.583,-28.75c41.25,-7.083 68.334,-13.333 80.834,-18.75c7.083,-3.333 15.833,-5.833 19.166,-5.833c8.334,0 12.917,-6.667 7.084,-10.417c-2.084,-1.25 -23.334,0.417 -47.5,4.167c-58.75,8.333 -73.334,8.333 -73.334,-1.25c0,-4.167 1.667,-9.167 3.334,-11.667c2.083,-2.083 10.833,-23.333 19.166,-47.5c39.167,-109.583 36.25,-104.583 71.667,-111.25c40.417,-7.916 58.333,-11.666 87.083,-19.166c13.75,-3.75 33.334,-9.167 43.75,-11.667c10.417,-2.5 21.25,-5.417 24.167,-6.25c7.5,-2.083 6.25,-9.167 -1.667,-10.833c-10,-1.667 -75,2.916 -125.833,9.166c-37.5,4.584 -43.333,4.584 -47.917,-0.833c-7.5,-9.167 -24.583,-20 -32.083,-20c-3.75,0 -8.75,2.083 -11.667,5Z" style="fill:#fff;fill-rule:nonzero;"/><path d="M709.792,102.416c-2.5,2.917 -8.334,11.667 -12.5,18.75c-7.5,12.917 -9.584,13.75 -30.417,13.75c-23.333,0 -36.25,7.917 -36.25,22.083c0,9.167 15.833,19.584 29.583,19.584c14.167,0 17.917,9.583 10,25c-3.333,6.666 -6.25,15 -6.25,18.333c0,3.75 -2.5,12.5 -5.833,20c-3.333,7.5 -9.167,25 -12.917,38.75c-4.166,13.75 -8.75,28.75 -10.833,33.333c-1.667,4.584 -4.583,12.5 -5.833,17.917c-2.917,10.417 -17.084,17.5 -33.75,17.5c-15.834,0 -17.917,12.083 -3.75,23.333c12.5,10 12.916,17.917 0.416,49.584c-3.333,9.166 -10.416,27.083 -15,39.583c-5,12.5 -10,26.667 -11.25,31.25c-1.25,4.583 -6.666,20 -12.5,34.167c-11.666,27.916 -10.833,38.75 3.334,57.083c10.833,13.75 37.083,27.5 52.083,27.5c17.5,0 59.167,-22.5 92.083,-49.583c37.5,-31.25 54.584,-52.917 47.5,-60c-3.75,-3.75 -7.916,-3.334 -18.333,2.916c-7.5,4.167 -24.583,13.75 -38.333,21.25c-13.75,7.5 -33.75,18.334 -44.167,24.167c-10.417,5.833 -24.583,11.25 -31.25,12.083c-10.833,1.25 -12.083,0 -11.667,-11.25c0.417,-7.083 4.584,-22.916 9.584,-35.416c5,-12.5 17.916,-48.75 28.333,-80c10.417,-31.25 20.833,-60 23.75,-63.75c2.5,-3.334 14.167,-8.334 25.417,-10.417c52.083,-9.583 67.5,-13.333 81.25,-18.333c7.916,-3.334 18.333,-7.084 22.5,-8.334c5.833,-2.083 6.666,-4.166 3.75,-7.083c-3.334,-3.333 -17.084,-2.5 -46.25,2.083c-46.667,7.5 -70,8.334 -73.334,2.917c-1.666,-2.083 0,-9.167 3.334,-15.833c3.333,-6.25 9.166,-20 12.916,-30.417c3.75,-10.417 9.584,-25 12.917,-32.5c3.333,-7.5 5.833,-16.25 5.833,-19.583c0,-3.334 2.5,-12.084 5.834,-19.584c3.333,-7.5 9.166,-21.666 13.333,-31.666c4.583,-11.25 10.417,-18.334 15.833,-19.584c5,-0.833 18.334,-3.75 29.584,-6.25c11.666,-2.5 28.333,-6.25 37.5,-7.916c9.166,-2.084 28.75,-6.667 43.75,-10.834c15,-3.75 36.25,-9.166 47.5,-12.083c11.666,-2.917 21.666,-7.5 22.5,-10c2.5,-7.5 -48.75,-6.667 -113.75,1.667l-54.584,7.083l-17.916,-12.917c-20,-14.583 -26.667,-16.25 -33.75,-8.333Z" style="fill:#fff;fill-rule:nonzero;"/></g></svg>