<?xml version="1.0" encoding="UTF-8" standalone="no"?>
<!DOCTYPE svg PUBLIC "-//W3C//DTD SVG 20010904//EN" "http://www.w3.org/TR/2001/REC-SVG-20010904/DTD/svg10.dtd">
<svg version="1.0" xmlns="http://www.w3.org/2000/svg" width="500.000000pt" height="500.000000pt" viewBox="0 0 500.000000 500.000000" preserveAspectRatio="xMidYMid meet">
<metadata>
Created by potrace 1.14, written by Peter Selinger 2001-2017
</metadata>
<rect x="25" y="25" width="450" height="450" fill="#fff" />
<g transform="translate(0.000000,500.000000) scale(0.100000,-0.100000)" fill="#000000" stroke="none">
<path d="M0 2500 l0 -2500 2500 0 2500 0 0 2500 0 2500 -2500 0 -2500 0 0 -2500z m2680 1895 c52 -3 151 -17 220 -31 502 -103 929 -383 1237 -812 75 -104 199 -343 242 -466 182 -518 152 -1069 -83 -1551 -199 -406 -523 -732 -921 -926 -550 -267 -1204 -267 -1749 0 -206 101 -357 209 -525 374 -174 171 -281 319 -390 539 -382 766 -231 1686 374 2293 298 299 661 489 1075 561 96 17 326 33 390 28 19 -2 78 -6 130 -9z"/>
<path d="M2378 4278 c-535 -28 -1056 -308 -1378 -743 -377 -508 -478 -1133 -279 -1729 185 -556 629 -997 1195 -1185 326 -108 709 -120 1055 -32 631 160 1142 654 1330 1285 195 655 9 1383 -474 1860 -296 292 -664 476 -1062 530 -140 19 -228 23 -387 14z m192 -1053 c56 -29 79 -126 44 -180 -15 -23 -12 -28 135 -223 179 -238 207 -262 314 -262 79 1 129 29 238 137 l98 96 -20 26 c-28 38 -34 90 -16 133 40 94 174 103 227 15 36 -59 24 -118 -35 -172 -31 -28 -36 -44 -101 -309 -38 -154 -76 -289 -86 -300 -16 -21 -21 -21 -861 -24 l-845 -2 -19 23 c-10 14 -46 137 -87 302 l-69 278 -44 42 c-39 38 -43 46 -43 89 0 142 179 187 240 60 24 -49 21 -90 -11 -135 l-18 -26 107 -105 c114 -110 146 -128 233 -128 25 0 66 10 95 24 47 22 66 43 207 230 l155 205 -19 38 c-23 46 -24 65 -2 110 31 66 116 93 183 58z m786 -1219 c21 -29 20 -209 -2 -230 -14 -14 -105 -16 -849 -16 l-834 0 -15 22 c-12 16 -16 47 -16 114 0 150 -98 135 877 132 803 -3 825 -4 839 -22z"/>
</g>
</svg>