<svg id="Layer_1" data-name="Layer 1" xmlns="http://www.w3.org/2000/svg" xmlns:xlink="http://www.w3.org/1999/xlink" width="120" height="48" viewBox="0 0 120 48"><defs><style>.cls-1{fill:#bb4c03;}.cls-2{fill:#f4a65a;}.cls-3{fill:url(#linear-gradient);}.cls-4,.cls-5{fill:#fff;}.cls-5{font-size:13px;font-family:ArialMT, Arial;}</style><linearGradient id="linear-gradient" x1="35" y1="34.78" x2="13.12" y2="12.9" gradientTransform="translate(-0.01 0.21)" gradientUnits="userSpaceOnUse"><stop offset="0" stop-color="#d95b29"/><stop offset="0.1" stop-color="#de642c"/><stop offset="0.27" stop-color="#ea7c33"/><stop offset="0.45" stop-color="#fb9e3d"/><stop offset="0.58" stop-color="#f6953a"/><stop offset="0.8" stop-color="#ea7d31"/><stop offset="0.9" stop-color="#e3702d"/></linearGradient></defs><title>rss</title><rect width="120" height="48"/><rect id="stroke" class="cls-1" x="10.05" y="10.05" width="28" height="28" rx="5.97" transform="translate(-0.15 0.15) rotate(-0.35)"/><rect id="inner_stroke" data-name="inner stroke" class="cls-2" x="10.8" y="10.8" width="26.5" height="26.5" rx="5.65" transform="translate(-0.15 0.15) rotate(-0.35)"/><rect id="gradient" class="cls-3" x="11.55" y="11.55" width="25" height="25" rx="5.33" transform="translate(-0.15 0.15) rotate(-0.35)"/><g id="lines_Group_" data-name="lines &lt;Group&gt;"><circle id="circle" class="cls-4" cx="17.55" cy="30.57" r="2.5"/><path class="cls-4" d="M15.14,24.27a8.67,8.67,0,0,1,8.7,8.65l3.56,0A12.25,12.25,0,0,0,15.12,20.71Z"/><path class="cls-4" d="M15.11,18a15,15,0,0,1,15,14.93l3.56,0A18.55,18.55,0,0,0,15.09,14.4Z"/></g><text class="cls-5" transform="translate(44.03 22.56)">Subscribe<tspan x="0" y="12">to RSS</tspan></text></svg>